<?xml version="1.0" standalone="no"?>
<!DOCTYPE svg PUBLIC "-//W3C//DTD SVG 20010904//EN"
 "http://www.w3.org/TR/2001/REC-SVG-20010904/DTD/svg10.dtd">
<svg version="1.0" xmlns="http://www.w3.org/2000/svg"
 width="32.000000pt" height="32.000000pt" viewBox="0 0 32.000000 32.000000"
 preserveAspectRatio="xMidYMid meet">

<g transform="translate(0.000000,32.000000) scale(0.100000,-0.100000)"
fill="#000000" stroke="none">
<path d="M24 286 c-3 -8 -4 -25 -2 -38 3 -23 4 -23 138 -23 l135 0 0 35 0 35
-133 3 c-108 2 -133 0 -138 -12z"/>
<path d="M24 186 c-3 -8 -4 -25 -2 -38 3 -23 4 -23 138 -23 l135 0 0 35 0 35
-133 3 c-108 2 -133 0 -138 -12z"/>
<path d="M24 86 c-3 -8 -4 -25 -2 -38 3 -23 4 -23 138 -23 l135 0 0 35 0 35
-133 3 c-108 2 -133 0 -138 -12z"/>
</g>
</svg>
